HIERARCHY
ROOT joint_Root
{
	OFFSET 0.0 0.0 0.0
	CHANNELS 6 Xposition Yposition Zposition Zrotation Xrotation Yrotation 
	JOINT Hips
	{
		OFFSET 4.5925 91.4895 -427.239
		CHANNELS 6 Xposition Yposition Zposition Zrotation Xrotation Yrotation 
		JOINT Spine
		{
			OFFSET 15.7357 0.0 0.0
			CHANNELS 6 Xposition Yposition Zposition Zrotation Xrotation Yrotation 
			JOINT Chest
			{
				OFFSET 8.98455 -0.406207 0.0
				CHANNELS 6 Xposition Yposition Zposition Zrotation Xrotation Yrotation 
				JOINT Neck
				{
					OFFSET 16.3773 0.0 0.0
					CHANNELS 6 Xposition Yposition Zposition Zrotation Xrotation Yrotation 
					JOINT Head
					{
						OFFSET 6.45672 0.0 0.0
						CHANNELS 6 Xposition Yposition Zposition Zrotation Xrotation Yrotation 
						End Site
						{
							OFFSET 0.0 0.0 0.0
						}
					}
				}
				JOINT Shoulder_L
				{
					OFFSET 12.9942 -0.242716 4.98039
					CHANNELS 6 Xposition Yposition Zposition Zrotation Xrotation Yrotation 
					JOINT UpperArm_L
					{
						OFFSET 5.34809 0.0 0.0
						CHANNELS 6 Xposition Yposition Zposition Zrotation Xrotation Yrotation 
						JOINT LowerArm_L
						{
							OFFSET 24.3286 1.87007e-05 0.0
							CHANNELS 6 Xposition Yposition Zposition Zrotation Xrotation Yrotation 
							JOINT Hand_L
							{
								OFFSET 22.2916 0.0 0.0
								CHANNELS 6 Xposition Yposition Zposition Zrotation Xrotation Yrotation 
								End Site
								{
									OFFSET 0.0 0.0 0.0
								}
							}
						}
					}
				}
				JOINT Shoulder_R
				{
					OFFSET 12.9945 -0.242716 -4.98039
					CHANNELS 6 Xposition Yposition Zposition Zrotation Xrotation Yrotation 
					JOINT UpperArm_R
					{
						OFFSET -5.34813 0.0 0.0
						CHANNELS 6 Xposition Yposition Zposition Zrotation Xrotation Yrotation 
						JOINT LowerArm_R
						{
							OFFSET -24.3289 0.000322201 0.0
							CHANNELS 6 Xposition Yposition Zposition Zrotation Xrotation Yrotation 
							JOINT Hand_R
							{
								OFFSET -22.2915 -0.000108084 0.0
								CHANNELS 6 Xposition Yposition Zposition Zrotation Xrotation Yrotation 
								End Site
								{
									OFFSET 0.0 0.0 0.0
								}
							}
						}
					}
				}
			}
		}
		JOINT UpperLeg_L
		{
			OFFSET -2.19248 -6.46944 0.0
			CHANNELS 6 Xposition Yposition Zposition Zrotation Xrotation Yrotation 
			JOINT LowerLeg_L
			{
				OFFSET 39.0811 0.0 -1.23785e-05
				CHANNELS 6 Xposition Yposition Zposition Zrotation Xrotation Yrotation 
				JOINT Foot_L
				{
					OFFSET 40.9854 0.0 -1.26872e-05
					CHANNELS 6 Xposition Yposition Zposition Zrotation Xrotation Yrotation 
					JOINT Toes_L
					{
						OFFSET 11.7543 0.0 0.0
						CHANNELS 6 Xposition Yposition Zposition Zrotation Xrotation Yrotation 
						End Site
						{
							OFFSET 0.0 0.0 0.0
						}
					}
				}
			}
		}
		JOINT UpperLeg_R
		{
			OFFSET -2.19251 6.46944 0.0
			CHANNELS 6 Xposition Yposition Zposition Zrotation Xrotation Yrotation 
			JOINT LowerLeg_R
			{
				OFFSET -39.0811 -0.00228153 -0.0401928
				CHANNELS 6 Xposition Yposition Zposition Zrotation Xrotation Yrotation 
				JOINT Foot_R
				{
					OFFSET -40.9854 0.0 0.0
					CHANNELS 6 Xposition Yposition Zposition Zrotation Xrotation Yrotation 
					JOINT Toes_R
					{
						OFFSET -11.7543 0.0 0.0
						CHANNELS 6 Xposition Yposition Zposition Zrotation Xrotation Yrotation 
						End Site
						{
							OFFSET 0.0 0.0 0.0
						}
					}
				}
			}
		}
	}
}
MOTION
Frames:	4
Frame Time:	0.0333333
0.000000 0.000000 0.000000 0.000000 0.000000 -0.000000 -4.411830 88.642400 98.567800 -87.174600 12.611900 171.491000 15.735700 0.000005 -0.000001 112.923000 81.726600 -114.207000 8.984550 -0.406207 -0.000000 7.583710 6.422020 -2.994660 16.377300 -0.000001 -0.000001 0.232373 -0.976682 2.270230 6.456720 -0.000001 -0.000000 -8.437820 -5.239160 2.782690 12.994200 -0.242716 4.980390 -90.813300 1.730710 -64.815200 5.348090 -0.000007 -0.000001 -64.515400 5.347480 17.028500 24.328600 0.000019 0.000005 11.742200 10.813800 -47.932700 22.291600 -0.000001 0.000005 5.817570 5.500990 -6.570320 12.994500 -0.242716 -4.980390 89.106400 5.924190 -81.406400 -5.348130 -0.000001 -0.000004 -52.254400 26.032100 -23.215100 -24.328900 0.000322 -0.000009 -3.658550 -1.693070 -65.203100 -22.291500 -0.000108 -0.000004 15.104700 5.600670 -11.385200 -2.192480 -6.469440 -0.000000 173.895000 -17.011700 -41.605300 39.081100 -0.000007 -0.000012 0.581686 -0.868467 33.815400 40.985400 -0.000006 -0.000013 5.731850 -5.337260 -67.897800 11.754300 -0.000000 0.000003 -0.009604 -0.100665 -20.677800 -2.192510 6.469440 -0.000001 173.887000 5.213790 -177.865000 -39.081100 -0.002282 -0.040193 0.544268 -0.116191 77.885900 -40.985400 0.000008 0.000006 0.655324 -0.344484 -23.012400 -11.754300 -0.000006 -0.000006 -0.014140 -0.132332 -21.970900
0.000000 0.000000 0.000000 0.000000 0.000000 -0.000000 -4.589590 85.287500 88.342700 -90.265900 7.700510 171.777000 15.735700 0.000005 -0.000001 100.345000 81.791400 -102.526000 8.984550 -0.406207 -0.000000 8.452060 2.921220 -4.575110 16.377300 -0.000001 -0.000001 -1.187930 -1.892260 2.383330 6.456720 -0.000001 -0.000000 -9.405650 -5.092280 3.938820 12.994200 -0.242716 4.980390 -92.110700 4.971340 -66.957400 5.348090 -0.000007 -0.000001 -61.587600 5.751520 4.958740 24.328600 0.000019 0.000005 8.111740 6.444970 -51.782700 22.291600 -0.000001 0.000005 9.107160 5.519770 -7.347780 12.994500 -0.242716 -4.980390 88.571300 9.161280 -81.097200 -5.348130 -0.000001 -0.000004 -52.463500 27.138000 -15.026500 -24.328900 0.000322 -0.000009 -6.815750 -5.538600 -51.102300 -22.291500 -0.000108 -0.000004 11.460100 5.587930 -10.632900 -2.192480 -6.469440 -0.000000 172.495000 -10.671400 -44.351100 39.081100 -0.000007 -0.000012 0.004266 -0.003651 49.416400 40.985400 -0.000006 -0.000013 5.268260 -4.949270 -64.882000 11.754300 -0.000000 0.000003 -0.004569 -0.057244 -18.905700 -2.192510 6.469440 -0.000001 173.748000 8.236410 170.113000 -39.081100 -0.002282 -0.040193 0.601818 0.117656 101.129000 -40.985400 0.000008 0.000006 -0.609220 0.471596 -18.881100 -11.754300 -0.000006 -0.000006 -0.014508 -0.134699 -22.068000
0.000000 0.000000 0.000000 0.000000 0.000000 -0.000000 -5.010220 81.862500 77.817200 -92.966700 2.876020 173.893000 15.735700 0.000005 -0.000001 91.578600 80.674500 -94.187600 8.984550 -0.406207 -0.000000 10.893600 0.438834 -5.257110 16.377300 -0.000001 -0.000001 -3.132740 -3.479640 1.955480 6.456720 -0.000001 -0.000000 -9.703370 -5.153310 4.512660 12.994200 -0.242716 4.980390 -91.785900 5.069470 -70.566400 5.348090 -0.000007 -0.000001 -60.845300 6.137180 -10.084800 24.328600 0.000019 0.000005 6.899630 4.371020 -57.797500 22.291600 -0.000001 0.000005 11.131600 5.529290 -7.765750 12.994500 -0.242716 -4.980390 88.333800 9.644330 -80.149600 -5.348130 -0.000001 -0.000004 -53.800000 30.369200 -6.911940 -24.328900 0.000322 -0.000009 -6.931860 -10.183600 -34.501700 -22.291500 -0.000108 -0.000004 8.992840 5.580520 -10.235400 -2.192480 -6.469440 -0.000000 171.273000 -3.034770 -40.371700 39.081100 -0.000007 -0.000012 -0.731403 0.388207 62.043700 40.985400 -0.000006 -0.000013 2.623200 -9.063890 -78.658400 11.754300 -0.000000 0.000003 -0.000022 -0.000277 -16.588400 -2.192510 6.469440 -0.000001 173.884000 10.244900 156.770000 -39.081100 -0.002282 -0.040193 0.311156 0.187146 121.310000 -40.985400 0.000008 0.000006 0.661247 0.279156 -16.166500 -11.754300 -0.000006 -0.000006 -0.014591 -0.135227 -22.089700
0.000000 0.000000 0.000000 0.000000 0.000000 -0.000000 -5.383360 79.806000 67.503600 -94.530200 -1.309830 172.976000 15.735700 0.000005 -0.000001 83.311000 80.572500 -85.873800 8.984550 -0.406207 -0.000000 10.921200 -2.250530 -4.908250 16.377300 -0.000001 -0.000001 -3.925470 -4.214800 1.660480 6.456720 -0.000001 -0.000000 -9.611900 -4.715170 5.115350 12.994200 -0.242716 4.980390 -90.877500 2.979260 -73.586400 5.348090 -0.000007 -0.000001 -60.416600 5.355640 -24.283600 24.328600 0.000019 0.000005 7.316560 3.213540 -66.411800 22.291600 -0.000001 0.000005 8.985200 5.540720 -8.275850 12.994500 -0.242716 -4.980390 88.225300 9.116860 -78.935500 -5.348130 -0.000001 -0.000004 -57.003900 28.510500 3.417270 -24.328900 0.000322 -0.000009 2.098220 4.456080 -25.296800 -22.291500 -0.000108 -0.000004 4.608590 5.563300 -9.349020 -2.192480 -6.469440 -0.000000 169.805000 -2.585900 -34.243900 39.081100 -0.000007 -0.000012 -0.939522 0.418611 65.986700 40.985400 -0.000006 -0.000013 3.364360 -6.598840 -89.182900 11.754300 -0.000000 0.000003 -0.000076 -0.000810 -16.608800 -2.192510 6.469440 -0.000001 175.672000 11.694100 137.147000 -39.081100 -0.002282 -0.040193 -0.169399 -0.168392 134.254000 -40.985400 0.000008 0.000006 4.833180 -2.078180 -14.063400 -11.754300 -0.000006 -0.000006 -0.015105 -0.138476 -22.223100
